<svg xmlns="http://www.w3.org/2000/svg" xmlns:xlink="http://www.w3.org/1999/xlink" version="1.1" x="0px" y="0px" viewBox="NaN NaN NaN 125"><g><path d="M31.034,11 C32.751,11.079 34.262,12.263 34.442,14.041 L34.034,14 L13.345,14 C11.459,14.079 9.914,15.515 9.896,17.448 C9.875,19.747 9.896,22.046 9.896,24.345 L6.448,24.345 C4.433,24.421 3.193,25.873 3,27.793 L3,82.965 L3.041,83.373 C1.192,83.225 0.17,81.652 -0,79.965 L-0,24.793 C0.392,20.693 3.859,21.345 6.897,21.345 L6.897,14.448 C6.973,12.433 8.424,11.193 10.345,11 z" fill="#8a4269"/></g><g><path d="M37.034,17 C38.751,17.079 40.262,18.263 40.442,20.041 L40.034,20 L19.345,20 C17.44,20 15.897,21.544 15.897,23.448 L15.896,30.345 L12.448,30.345 C10.433,30.421 9.193,31.873 9,33.793 L9,88.965 L9.041,89.373 C7.192,89.225 6.17,87.652 6,85.965 L6,30.793 C6.392,26.693 9.859,27.345 12.896,27.345 L12.896,20.448 C12.973,18.433 14.424,17.193 16.345,17 z" fill="#8a4269"/></g><g><path d="M15.448,95.414 C13.544,95.414 12,93.87 12,91.966 L12,36.793 C12,34.889 13.544,33.345 15.448,33.345 L18.897,33.345 L18.897,26.448 C18.897,24.544 20.44,23 22.345,23 L43.034,23 C44.939,23 46.483,24.544 46.483,26.448 L46.483,33.345 L94.759,33.345 C96.663,33.345 98.207,34.889 98.207,36.793 L98.207,91.966 C98.207,93.87 96.663,95.414 94.759,95.414 L15.448,95.414" fill="#8a4269"/></g></svg>