<svg xmlns="http://www.w3.org/2000/svg" xmlns:xlink="http://www.w3.org/1999/xlink" version="1.1" x="0px" y="0px" viewBox="0 0 64 80" enable-background="new 0 0 64 64" xml:space="preserve"><g><path d="M39.977,0L0,39.977L24.024,64L64,24.024l-0.313-11.819L51.795,0.313L39.977,0z M61.313,13.226l0.26,9.83L24.024,60.604   L3.396,39.977L40.945,2.428l9.83,0.26L61.313,13.226z" fill="#8a4269"/><path d="M41.59,4.047L5.661,39.977L24.024,58.34l35.929-35.93l-0.223-8.503l-9.637-9.636L41.59,4.047z M39.947,36.04L25.566,50.422   l-1.936-1.937l14.381-14.382L39.947,36.04z M34.922,31.015L20.541,45.396l-1.936-1.937l14.381-14.382L34.922,31.015z    M29.897,25.989L15.516,40.37l-1.937-1.936l14.382-14.382L29.897,25.989z M52.072,17.322c-1.49,1.49-3.904,1.49-5.395,0.001   c-1.488-1.49-1.488-3.904,0-5.394c1.49-1.489,3.904-1.489,5.395,0C53.561,13.419,53.561,15.833,52.072,17.322z" fill="#8a4269" /></g></svg>